<svg width="1058" height="300" viewBox="0 0 1058 300" fill="none" xmlns="http://www.w3.org/2000/svg">
<path d="M89.9 196.6C103.1 196.6 114.4 191.4 120.8 184.4L159.5 206.6C143.7 228.5 119.9 239.8 89.3 239.8C34.2 239.8 0 202.7 0 154.7C0 106.7 34.8 69.6001 85.7 69.6001C136.6 69.6001 167.5 106 167.5 154.7C167.5 203.4 166.9 167.9 165.6 174H51.2C57.3 190.8 72.1 196.6 89.9 196.6ZM119.5 138C114.3 119.3 99.8 112.5 85.3 112.5C70.8 112.5 54.7 121.5 50.2 138H119.5Z" fill="#004742"/>
<path d="M282.9 235.3L252.9 192.8L222.9 235.3H167.5L225.2 153.4L169.5 74.1001H224.9L252.9 114.1L280.9 74.1001H336.3L280.6 153.4L338.3 235.3H282.9Z" fill="#004742"/>
<path d="M510.1 74.1001V235.2H461.8V220.1C451.2 232.3 435.4 239.8 413.8 239.8C371.6 239.8 336.8 202.7 336.8 154.7C336.8 106.7 371.6 69.6001 413.8 69.6001C456 69.6001 451.2 77.0001 461.8 89.3001V74.2001H510.1V74.1001ZM461.8 154.7C461.8 130.5 445.7 115.4 423.5 115.4C401.3 115.4 385.2 130.5 385.2 154.7C385.2 178.9 401.3 194 423.5 194C445.7 194 461.8 178.9 461.8 154.7Z" fill="#004742"/>
<path d="M787.2 136.3V235.2H738.9V140.5C738.9 124.4 731.2 114.1 715.7 114.1C700.2 114.1 690.6 125.4 690.6 144.4V235.3H642.3V140.6C642.3 124.5 634.6 114.2 619.1 114.2C603.6 114.2 594 125.5 594 144.5V235.4H545.7V74.3H594V89.1001C601.4 78.1001 615.6 69.8 637.2 69.8C658.8 69.8 670.4 77.5001 679.4 91.1001C688.4 78.2001 703.2 69.8 726.1 69.8C763.2 69.8 787.3 96.2001 787.3 136.5L787.2 136.3Z" fill="#004742"/>
<path d="M820.4 0H868.7V235.2H820.4V0Z" fill="#004742"/>
<path d="M1057.3 74.1001L1002.2 230.4C984.2 281.6 955.5 301.9 910.4 299.7V254.6C933 254.6 943.6 247.5 950.7 227.9L886.6 74.2001H939.8L975.6 172.8L1005.9 74.2001H1057.5L1057.3 74.1001Z" fill="#004742"/>
<path d="M280.7 153.4L252.9 114.1L224.9 74.1001H169.5L225.2 153.4L167.6 235.3H223L252.9 192.7L280.7 153.4Z" fill="#CEAE2C"/>
</svg>
